<?xml version="1.0" standalone="no"?>
<!DOCTYPE svg PUBLIC "-//W3C//DTD SVG 20010904//EN"
 "http://www.w3.org/TR/2001/REC-SVG-20010904/DTD/svg10.dtd">
<svg version="1.0" xmlns="http://www.w3.org/2000/svg"
 width="670.000000pt" height="670.000000pt" viewBox="0 0 670.000000 670.000000"
 preserveAspectRatio="xMidYMid meet">
<metadata>
Created by potrace 1.14, written by Peter Selinger 2001-2017
</metadata>
<g transform="translate(0.000000,670.000000) scale(0.100000,-0.100000)"
fill="#000000" stroke="none">
<path d="M4804 5679 c-2 -4 -17 -6 -34 -5 -16 1 -30 -1 -30 -6 0 -4 -3 -7 -7
-6 -5 1 -24 -4 -43 -11 -19 -8 -41 -15 -49 -17 -8 -1 -17 -7 -20 -13 -3 -5
-13 -11 -21 -13 -8 -2 -21 -9 -28 -16 -8 -7 -18 -10 -23 -6 -5 3 -11 -1 -14
-8 -4 -9 -25 -13 -68 -13 -34 0 -66 -2 -72 -5 -5 -3 -19 -6 -30 -6 -45 -4
-103 -13 -145 -24 -25 -6 -50 -12 -57 -13 -7 -2 -15 -6 -19 -9 -3 -4 -12 -4
-20 -1 -8 3 -14 0 -14 -7 0 -6 -4 -8 -10 -5 -5 3 -22 -1 -38 -9 -16 -8 -32
-13 -35 -9 -4 3 -18 -2 -31 -11 -14 -9 -31 -16 -38 -16 -7 0 -26 -7 -42 -15
-15 -8 -32 -13 -36 -10 -5 3 -10 1 -12 -3 -4 -10 -130 -72 -147 -72 -6 0 -11
-4 -11 -9 0 -5 -13 -14 -30 -21 -16 -7 -30 -17 -30 -23 0 -6 -3 -7 -7 -4 -3 4
-16 -4 -27 -16 -12 -13 -28 -21 -35 -19 -8 3 -11 0 -7 -7 6 -10 -6 -16 -18 -8
-2 1 -14 -10 -26 -25 -12 -16 -28 -28 -36 -28 -8 0 -12 -4 -9 -10 3 -5 2 -10
-3 -10 -5 0 -21 -11 -36 -25 -15 -14 -32 -25 -37 -25 -6 0 -7 -4 -4 -10 3 -5
-1 -10 -9 -10 -9 0 -16 -7 -16 -15 0 -8 -4 -15 -9 -15 -5 0 -26 -16 -47 -35
-20 -19 -33 -35 -28 -35 5 0 -3 -8 -16 -17 -14 -10 -35 -29 -47 -43 -11 -14
-35 -40 -52 -59 -17 -19 -31 -38 -31 -42 0 -4 -9 -11 -21 -14 -17 -6 -18 -9
-7 -23 9 -11 9 -14 1 -9 -15 9 -53 -27 -53 -50 0 -9 -3 -14 -6 -10 -10 10 -36
-22 -29 -34 4 -6 -6 -4 -23 5 -16 8 -41 13 -56 10 -20 -3 -26 0 -27 13 0 11
-3 13 -6 5 -2 -6 -10 -9 -16 -5 -7 4 -8 0 -4 -11 4 -10 3 -15 -3 -11 -6 3 -10
15 -10 26 0 10 -5 19 -11 19 -5 0 -7 -4 -4 -10 3 -5 1 -10 -4 -10 -6 0 -11 6
-11 13 0 6 -6 1 -13 -13 -7 -14 -21 -24 -30 -24 -13 2 -15 -1 -8 -10 8 -9 6
-13 -4 -13 -8 0 -15 6 -15 13 0 7 -4 16 -10 19 -6 4 -7 -1 -3 -11 5 -13 3 -15
-7 -9 -8 5 -11 4 -6 -3 3 -6 -3 -16 -14 -22 -12 -6 -19 -18 -16 -25 2 -7 -2
-19 -9 -25 -8 -7 -12 -17 -8 -24 4 -8 2 -7 -7 1 -7 6 -20 9 -29 5 -14 -5 -14
-4 -1 13 14 17 14 17 -7 4 -19 -11 -20 -15 -8 -22 9 -4 12 -13 9 -19 -4 -6 0
-15 7 -20 12 -8 11 -9 -1 -5 -8 2 -21 -3 -28 -12 -8 -9 -11 -11 -8 -6 2 6 -3
16 -13 22 -15 10 -17 8 -14 -12 3 -12 -1 -26 -7 -30 -9 -5 -10 -1 -6 16 3 13
3 18 0 11 -5 -10 -9 -10 -22 0 -14 10 -15 10 -4 -2 18 -21 16 -54 -4 -46 -10
4 -13 2 -8 -6 5 -8 2 -9 -10 -5 -11 4 -15 3 -11 -4 4 -6 13 -8 21 -5 8 3 11 0
8 -9 -3 -8 -13 -11 -21 -8 -11 4 -14 2 -9 -5 4 -7 4 -12 -1 -12 -4 0 -17 -13
-28 -28 -19 -27 -19 -27 0 -12 18 14 19 14 7 -2 -8 -9 -11 -21 -8 -26 3 -5 -1
-9 -9 -9 -8 0 -11 5 -8 10 3 6 1 7 -5 3 -9 -5 -9 -13 0 -29 11 -21 10 -21 -7
-7 -17 14 -18 13 -12 -2 3 -10 3 -17 -1 -17 -17 3 -32 -2 -31 -8 3 -21 -2 -34
-11 -28 -6 4 -7 11 -4 17 4 7 2 8 -4 4 -6 -4 -8 -14 -5 -23 5 -12 3 -14 -7 -8
-9 5 -11 4 -6 -4 4 -6 12 -9 17 -6 5 4 9 1 9 -4 0 -10 -14 -15 -33 -12 -5 1
-6 -3 -2 -9 3 -5 14 -10 23 -11 14 0 13 -2 -3 -8 -11 -5 -24 -6 -29 -3 -5 3
-6 0 -2 -6 4 -7 2 -12 -5 -12 -7 0 -10 -3 -7 -6 4 -3 17 0 30 6 l23 13 -20
-20 c-11 -11 -23 -19 -27 -16 -4 2 -5 -3 -2 -12 4 -9 3 -15 -2 -14 -23 4 -26
-2 -8 -16 18 -14 18 -14 -4 -10 -12 2 -20 0 -17 -6 4 -5 2 -9 -4 -9 -6 0 -7
-7 -4 -17 5 -12 3 -14 -7 -8 -9 5 -11 4 -6 -4 4 -6 12 -8 18 -5 5 4 2 -6 -8
-22 -16 -24 -16 -27 -2 -16 12 10 18 10 24 1 4 -7 3 -9 -3 -6 -12 7 -24 -14
-30 -51 -2 -13 0 -21 4 -19 5 3 10 -4 10 -16 2 -15 0 -18 -6 -8 -5 7 -7 -8 -6
-38 2 -50 7 -65 26 -67 22 -3 23 -5 9 -14 -9 -6 -10 -10 -3 -10 6 0 19 10 29
23 9 13 14 15 11 5 -6 -17 21 -48 38 -42 13 5 47 -54 39 -67 -3 -5 -1 -8 5 -7
10 3 141 -205 141 -223 0 -5 4 -9 8 -9 5 0 16 -15 25 -32 22 -43 55 -101 95
-163 l31 -51 265 1 c176 0 262 -3 258 -10 -3 -6 1 -5 9 1 17 13 287 13 308 0
9 -6 12 -5 7 2 -4 8 7 10 38 9 24 -1 42 -5 39 -9 -2 -5 1 -8 7 -8 6 0 8 -4 5
-10 -3 -6 1 -7 10 -3 13 5 14 7 3 14 -8 6 -9 9 -1 9 6 0 18 3 27 6 11 4 16 0
16 -12 0 -16 2 -17 10 -4 6 10 10 11 10 3 0 -7 5 -13 11 -13 5 0 7 5 3 12 -4
7 -3 8 5 4 9 -6 8 -14 -5 -34 -17 -26 -17 -27 2 -10 10 9 26 18 34 20 8 2 18
8 22 13 4 6 8 2 8 -8 0 -11 -6 -17 -16 -15 -9 2 -23 -8 -31 -22 -14 -23 -14
-23 1 -6 18 22 107 30 99 9 -3 -6 5 -17 17 -23 11 -6 17 -16 14 -22 -4 -7 -3
-8 5 -4 6 4 9 12 6 17 -9 14 2 11 19 -7 17 -17 60 -28 51 -13 -4 5 -10 7 -15
4 -5 -3 -11 -1 -14 4 -9 13 22 7 37 -8 9 -9 9 -14 -3 -22 -13 -9 -12 -10 2 -5
10 3 20 1 24 -5 4 -7 10 -6 19 1 8 7 15 7 19 1 3 -5 0 -12 -6 -14 -10 -4 -10
-6 0 -6 7 -1 15 6 19 15 4 12 8 11 18 -8 6 -13 17 -22 23 -20 7 1 12 -2 12 -8
0 -5 5 -10 11 -10 5 0 7 6 3 13 -4 6 2 4 13 -6 11 -9 23 -14 28 -10 4 5 4 2 0
-6 -6 -11 -4 -13 8 -8 9 3 21 -1 29 -11 12 -15 11 -16 -4 -3 -12 9 -18 10 -18
2 0 -10 14 -15 33 -12 4 1 15 -6 24 -14 8 -9 20 -14 27 -12 6 2 17 -3 24 -12
10 -14 11 -14 6 4 -4 15 -4 17 4 6 6 -8 9 -23 7 -33 -2 -10 0 -18 6 -18 5 0 9
5 9 10 0 6 5 10 11 10 5 0 7 -4 4 -10 -3 -5 -1 -10 5 -10 6 0 8 -6 4 -12 -5
-10 -4 -10 6 -1 11 10 17 8 31 -9 10 -11 16 -25 13 -30 -4 -6 3 -5 15 1 15 8
21 9 21 1 0 -6 6 -8 13 -4 9 6 9 5 0 -8 -7 -8 -10 -18 -7 -21 3 -3 -8 -42 -25
-87 -17 -45 -31 -88 -31 -95 0 -10 39 -13 190 -13 153 0 193 -3 204 -15 8 -8
13 -17 11 -19 -2 -2 6 -4 20 -4 13 0 21 4 19 8 -3 5 -9 6 -13 4 -4 -3 -8 1 -8
8 0 11 4 12 19 3 11 -7 17 -19 14 -30 -2 -10 0 -14 7 -10 6 4 8 0 4 -10 -4
-11 -2 -14 8 -10 8 3 12 10 8 16 -3 6 -1 7 6 3 6 -4 8 -12 5 -18 -5 -7 1 -9
16 -5 17 4 20 3 11 -6 -17 -17 -13 -31 4 -17 8 7 15 9 15 4 0 -5 5 -2 11 6 9
12 10 12 5 -4 -5 -14 -2 -17 11 -12 10 4 14 4 11 0 -12 -11 16 -33 29 -23 7 7
14 5 19 -3 4 -7 4 -10 -1 -6 -9 8 -35 -9 -35 -22 0 -5 18 -6 40 -3 36 5 40 3
40 -15 0 -11 5 -24 10 -27 6 -4 7 -11 4 -17 -4 -7 -2 -8 5 -4 6 4 9 12 6 17
-4 5 5 8 19 7 13 -1 22 -6 20 -10 -3 -5 -11 -5 -17 -1 -7 4 -6 0 2 -10 7 -9
19 -17 25 -17 6 0 4 5 -4 10 -12 8 -10 10 8 10 13 0 20 4 17 10 -3 6 1 7 10 4
8 -4 20 -15 26 -25 8 -15 14 -17 29 -9 13 7 21 7 26 -2 4 -6 3 -8 -4 -4 -6 3
-13 2 -17 -3 -3 -6 4 -8 17 -6 13 3 24 9 26 14 2 6 10 7 18 4 7 -3 11 -9 8
-14 -3 -5 2 -6 10 -3 8 3 17 13 20 21 6 14 8 14 25 -1 18 -16 31 -13 31 8 0 6
-5 4 -10 -4 -7 -11 -10 -8 -10 16 0 30 15 54 35 54 5 0 2 -5 -7 -11 -10 -5
-18 -15 -18 -21 0 -6 11 -2 23 10 25 23 35 61 11 41 -8 -7 -14 -7 -19 1 -4 7
2 14 14 17 11 3 18 9 15 14 -3 5 -10 6 -16 3 -7 -4 -8 -2 -4 4 4 6 13 9 20 6
8 -3 17 0 21 6 3 6 3 10 -2 9 -27 -5 -32 2 -16 20 9 11 21 17 27 14 6 -3 8 -3
4 2 -4 4 -3 13 2 20 7 8 5 12 -5 12 -8 0 -12 -3 -10 -7 3 -4 -4 -15 -15 -25
-11 -10 -20 -13 -20 -8 0 6 7 13 15 16 8 4 12 15 10 27 -2 12 2 23 10 27 8 3
12 9 9 15 -3 5 -13 4 -22 -4 -15 -12 -16 -11 -3 4 7 10 17 15 22 12 5 -3 9 2
9 11 0 10 -5 13 -12 9 -9 -5 -9 -2 1 9 7 9 10 17 5 17 -4 0 1 7 12 16 10 8 14
13 8 10 -7 -4 -10 4 -7 22 2 15 5 33 5 40 1 7 7 11 13 8 8 -3 10 4 7 21 -3 15
-1 23 5 20 5 -3 14 3 21 14 9 14 9 18 1 17 -6 -2 -14 3 -17 11 -3 8 0 11 7 7
6 -4 11 -1 11 8 0 9 5 16 11 16 5 0 7 5 4 10 -4 6 -12 7 -18 4 -7 -4 -8 -3 -4
2 5 5 13 10 18 10 22 3 23 5 9 14 -10 6 -11 10 -2 10 15 0 16 42 2 56 -7 7 -6
11 4 11 8 0 13 -4 10 -9 -3 -4 -1 -8 5 -8 5 0 9 9 8 19 0 11 -4 18 -8 16 -17
-11 0 47 19 65 19 18 22 40 6 40 -3 0 -3 -4 1 -9 9 -15 -15 -25 -28 -12 -9 9
-8 11 3 6 11 -4 16 1 17 15 1 11 -2 18 -7 15 -5 -3 -12 0 -16 6 -4 8 -3 9 4 5
7 -4 12 -2 12 4 0 6 4 9 9 6 5 -3 7 9 6 26 -2 18 -8 34 -14 36 -6 2 -9 8 -5
13 3 5 0 9 -5 9 -6 0 -11 -6 -11 -12 0 -9 -3 -8 -9 2 -11 17 -5 30 12 26 7 -1
9 -1 4 1 -4 3 -4 10 -1 15 4 6 2 8 -3 5 -11 -7 -26 17 -17 26 3 3 7 41 9 84 5
96 6 103 17 103 4 0 8 5 8 11 0 13 25 39 38 39 6 0 15 -13 21 -30 5 -16 7 -30
4 -30 -3 0 1 -8 8 -17 12 -15 12 -16 -1 -8 -13 8 -13 7 -1 -9 12 -14 12 -19 2
-26 -11 -6 -11 -8 -1 -12 8 -2 14 -11 16 -19 1 -7 7 -27 12 -44 5 -16 8 -42 7
-57 -1 -16 3 -28 8 -28 6 0 7 -3 4 -7 -4 -3 -2 -12 4 -20 9 -10 8 -13 -1 -13
-8 0 -9 -4 -3 -12 5 -7 9 -30 8 -50 0 -21 2 -38 5 -38 4 0 8 -19 9 -42 2 -24
3 -49 4 -55 0 -7 3 -13 6 -13 6 0 11 -36 14 -92 1 -16 5 -28 9 -28 4 0 5 -7 2
-15 -4 -8 -2 -15 4 -15 6 0 8 -9 5 -20 -3 -11 -1 -20 4 -20 5 0 10 -12 11 -27
8 -70 8 -81 0 -77 -4 3 -8 0 -8 -5 0 -6 -6 -10 -12 -9 -7 2 -12 -5 -12 -15 2
-14 -1 -15 -13 -6 -11 10 -14 10 -11 -2 2 -8 -3 -13 -11 -11 -12 3 -12 0 -2
-12 11 -13 10 -15 -8 -11 -14 2 -21 -1 -21 -11 0 -8 -4 -13 -9 -9 -6 3 -8 -4
-6 -15 3 -17 1 -19 -16 -10 -15 8 -19 8 -17 -2 2 -7 8 -16 13 -20 6 -4 1 -8
-10 -8 -17 0 -17 -2 -5 -10 12 -8 12 -10 1 -10 -8 0 -11 -7 -8 -19 3 -15 1
-18 -11 -14 -12 5 -14 1 -10 -15 4 -14 2 -20 -5 -15 -6 4 -8 0 -4 -10 4 -11 1
-17 -9 -17 -12 0 -13 -4 -3 -22 10 -19 9 -20 -7 -14 -15 6 -17 5 -6 -6 10 -10
8 -15 -10 -25 -13 -7 -16 -12 -8 -11 9 2 15 -1 15 -7 0 -5 -3 -9 -7 -8 -4 2
-5 -4 -2 -12 4 -8 11 -12 18 -9 6 3 2 -2 -8 -10 -16 -13 -17 -16 -4 -16 11 0
17 -12 20 -40 2 -22 0 -45 -4 -50 -5 -6 -3 -6 4 0 19 16 32 12 18 -5 -11 -13
-10 -14 4 -9 12 4 16 0 16 -16 0 -14 4 -19 13 -14 9 6 9 4 -1 -8 -10 -13 -10
-17 0 -21 11 -4 10 -7 0 -15 -11 -7 -11 -10 3 -15 9 -4 13 -3 10 3 -3 6 -1 10
4 10 6 0 11 -4 11 -10 0 -5 10 -10 23 -10 12 0 17 -4 11 -8 -7 -5 -7 -14 1
-29 7 -13 15 -20 18 -16 4 3 7 0 7 -7 0 -7 3 -10 7 -7 3 4 15 0 25 -10 10 -9
18 -12 18 -7 0 5 13 -5 28 -21 15 -17 23 -25 18 -18 -12 19 25 5 41 -14 7 -9
17 -12 24 -7 9 5 10 2 6 -9 -3 -9 -1 -19 5 -23 7 -5 8 -2 3 6 -6 10 -3 12 13
8 12 -4 22 -3 22 1 0 4 6 8 13 9 6 0 24 3 40 5 18 3 31 -1 38 -12 9 -14 10
-14 5 1 -4 14 1 16 34 14 22 -2 37 1 34 6 -3 5 6 7 20 4 14 -3 29 0 32 6 5 7
2 8 -6 3 -9 -6 -11 -4 -6 4 5 7 15 10 23 6 13 -4 14 -3 3 10 -7 9 -10 18 -6
22 3 3 6 2 6 -4 0 -6 7 -14 16 -17 14 -5 15 -4 4 9 -11 13 -8 15 16 16 16 0
23 3 16 6 -6 2 -9 9 -6 14 3 6 11 5 20 -2 12 -10 15 -10 12 2 -2 8 -7 17 -13
21 -6 5 -6 8 2 8 7 0 17 -8 22 -17 14 -25 14 -7 -1 20 -10 20 -10 21 5 8 12
-9 17 -10 17 -2 0 7 4 10 9 6 5 -3 13 0 17 6 4 8 3 9 -4 5 -7 -4 -12 -3 -12 3
0 5 9 13 21 16 11 4 18 13 16 20 -4 8 3 12 16 11 15 -1 22 4 21 17 -1 9 2 17
8 17 5 0 6 6 2 12 -5 8 0 7 11 -2 17 -14 18 -14 5 10 -12 23 -12 24 3 11 19
-15 23 -1 6 16 -9 9 -7 11 7 7 13 -3 27 3 39 17 11 12 14 19 8 15 -7 -4 -13
-2 -13 3 0 6 7 11 16 11 8 0 12 5 9 10 -3 6 -1 10 4 10 6 0 11 4 11 10 0 5 -6
7 -14 4 -16 -6 -16 19 -1 33 4 4 5 2 1 -4 -10 -18 -1 -16 14 3 8 8 9 14 4 13
-21 -4 -28 2 -14 11 12 8 12 10 1 10 -11 0 -9 5 5 21 10 11 14 20 9 19 -6 -2
-17 -2 -25 -1 -12 1 -12 4 3 12 14 8 15 14 6 31 -9 16 -8 19 2 13 8 -5 10 -4
5 4 -4 6 -2 19 6 28 11 14 11 16 -1 8 -11 -6 -13 -4 -7 10 6 16 4 16 -11 4
-15 -12 -16 -12 -10 4 4 10 3 16 -2 13 -4 -3 -19 6 -31 19 -27 28 -21 34 6 8
17 -17 18 -17 11 1 -4 10 -2 26 5 35 12 14 11 15 -5 2 -15 -12 -20 -12 -30 -1
-10 10 -9 11 3 6 8 -4 0 6 -19 23 -19 17 -38 28 -42 25 -5 -3 -11 7 -15 22 -5
19 -9 22 -15 12 -7 -10 -9 -9 -9 5 0 10 -5 15 -10 12 -6 -3 -13 0 -16 9 -3 9
-12 12 -22 9 -9 -4 -14 -3 -10 1 3 4 2 21 -2 37 -5 16 -5 29 -1 29 3 0 7 8 8
18 1 9 5 33 9 52 4 19 8 47 8 63 1 15 4 27 8 27 5 0 8 10 8 23 0 13 6 29 13
36 10 11 9 12 -3 6 -12 -7 -13 -6 -3 6 6 8 14 33 16 55 3 23 11 52 17 65 10
17 10 24 2 27 -8 2 -7 8 3 19 8 8 15 28 15 44 0 16 4 29 8 29 4 0 8 8 8 18 1
9 9 44 18 77 10 33 19 67 21 75 2 8 8 29 14 47 5 17 7 34 3 37 -3 3 -1 6 4 6
6 0 11 10 11 23 1 12 6 40 13 62 6 22 13 51 16 65 3 13 10 30 16 37 6 8 8 16
5 20 -4 3 -2 12 4 20 19 23 29 117 19 175 -4 21 -5 40 -2 43 3 3 7 13 8 23 5
50 17 140 21 157 8 39 9 75 2 87 -4 7 -3 20 2 30 5 10 6 18 2 18 -4 0 -9 15
-10 33 -1 17 -11 53 -22 80 -11 26 -18 47 -14 47 3 0 -4 8 -15 19 -12 10 -20
20 -17 23 3 2 -11 20 -29 40 -19 20 -32 39 -29 41 3 3 -4 12 -16 19 -12 7 -21
19 -21 27 0 8 -3 12 -6 8 -8 -7 -34 17 -34 32 0 6 -9 16 -20 23 -11 7 -20 18
-20 25 0 7 -7 13 -17 13 -9 0 -14 3 -10 6 4 5 -28 55 -71 109 -5 6 -7 16 -4
23 2 6 -1 12 -7 12 -6 0 -10 3 -9 8 1 4 -4 20 -10 35 -7 16 -12 32 -12 37 0
12 -43 84 -52 88 -4 2 -8 8 -8 14 0 6 -18 29 -40 50 -22 22 -40 44 -40 49 0 5
-4 9 -10 9 -5 0 -18 8 -28 18 -41 39 -71 60 -76 55 -3 -4 -6 -1 -6 6 0 7 -4 9
-10 6 -5 -3 -10 1 -10 9 0 9 -8 16 -19 16 -10 0 -22 7 -25 16 -4 9 -9 14 -13
11 -3 -4 -12 1 -20 11 -9 10 -11 11 -7 2 5 -8 -8 -3 -28 12 -19 15 -38 24 -42
21 -3 -4 -6 -2 -6 4 0 10 -36 26 -52 24 -5 -1 -8 4 -8 10 0 5 -4 7 -10 4 -5
-3 -10 -1 -10 4 0 6 -9 11 -20 11 -11 0 -20 5 -20 10 0 6 -9 10 -20 10 -11 0
-20 5 -20 12 0 6 -3 9 -6 6 -3 -4 -38 7 -77 23 -40 17 -73 30 -74 30 -2 1 -12
3 -22 6 -11 3 -23 4 -27 3 -4 -1 -10 4 -14 10 -4 7 -19 13 -34 13 -14 0 -26 4
-26 9 0 5 -4 7 -9 3 -5 -3 -12 -1 -16 5 -4 6 -10 8 -15 5 -5 -3 -18 -1 -29 4
-10 6 -33 12 -50 13 -17 1 -31 5 -31 8 0 3 -12 7 -27 8 -16 1 -44 5 -63 8 -50
8 -241 10 -246 3z m-2437 -1584 c0 -8 -4 -12 -9 -9 -4 3 -8 9 -8 15 0 5 4 9 8
9 5 0 9 -7 9 -15z m-17 -241 c0 -8 -5 -12 -10 -9 -6 4 -8 11 -5 16 9 14 15 11
15 -7z m74 -40 c3 -8 2 -12 -4 -9 -6 3 -10 10 -10 16 0 14 7 11 14 -7z m3191
-544 c3 -6 -1 -7 -9 -4 -18 7 -21 14 -7 14 6 0 13 -4 16 -10z m5 -24 c0 -11
-19 -15 -25 -6 -3 5 1 10 9 10 9 0 16 -2 16 -4z m-1458 -160 c7 4 8 2 4 -5 -9
-13 -26 -5 -25 12 0 9 2 8 6 -1 2 -6 10 -9 15 -6z m168 -82 c0 -8 -19 -13 -24
-6 -3 5 1 9 9 9 8 0 15 -2 15 -3z m2078 -299 c-3 -3 -9 2 -12 12 -6 14 -5 15
5 6 7 -7 10 -15 7 -18z m82 -109 c0 -2 -8 -10 -17 -17 -16 -13 -17 -12 -4 4
13 16 21 21 21 13z m-35 -257 c-4 -5 -12 -9 -18 -8 -9 0 -8 2 1 6 6 2 9 10 6
15 -4 7 -2 8 5 4 6 -4 9 -12 6 -17z"/>
<path d="M2943 4737 c0 -8 6 -14 14 -14 9 0 10 4 2 14 -6 7 -12 13 -14 13 -1
0 -2 -6 -2 -13z"/>
<path d="M2981 4743 c-1 -7 8 -17 19 -23 14 -7 20 -7 20 0 0 5 -6 10 -14 10
-8 0 -17 6 -19 13 -4 9 -6 9 -6 0z"/>
<path d="M2703 4623 c0 -9 4 -10 14 -2 7 6 13 12 13 14 0 1 -6 2 -13 2 -8 0
-14 -6 -14 -14z"/>
<path d="M1018 3763 c-31 -92 -107 -314 -168 -493 -179 -521 -210 -613 -206
-618 3 -2 173 -4 378 -4 l373 -1 21 59 c11 33 62 178 113 324 51 146 97 268
103 271 5 4 164 7 352 7 187 0 366 1 398 1 l56 1 -186 307 -187 307 -495 4
-495 3 -57 -168z"/>
<path d="M3896 3176 c6 -15 4 -17 -6 -11 -9 6 -11 4 -5 -4 5 -9 10 -10 18 -2
8 8 7 14 -2 24 -10 10 -11 8 -5 -7z"/>
<path d="M5609 3138 c-5 -18 -6 -38 -1 -34 7 8 12 36 6 36 -2 0 -4 -1 -5 -2z"/>
<path d="M4180 3039 c-13 -9 -13 -10 0 -6 8 2 21 -3 28 -12 11 -14 11 -13 2 7
-12 25 -11 25 -30 11z"/>
<path d="M5525 2780 c10 -11 20 -20 22 -20 2 0 -2 9 -9 20 -7 11 -17 20 -22
20 -5 0 -1 -9 9 -20z"/>
<path d="M6361 2784 c0 -11 3 -14 6 -6 3 7 2 16 -1 19 -3 4 -6 -2 -5 -13z"/>
<path d="M5513 2725 c0 -8 4 -12 9 -9 5 3 6 10 3 15 -9 13 -12 11 -12 -6z"/>
<path d="M4986 2533 c11 -10 19 -24 16 -31 -5 -17 5 -15 11 2 4 9 -5 21 -21
31 -26 16 -27 16 -6 -2z"/>
<path d="M5215 2420 c3 -5 8 -10 11 -10 2 0 4 5 4 10 0 6 -5 10 -11 10 -5 0
-7 -4 -4 -10z"/>
<path d="M291 1680 c-127 -338 -231 -620 -231 -627 0 -7 9 -17 19 -23 13 -6
551 -9 1638 -7 l1619 2 -198 330 c-110 181 -203 334 -209 340 -6 6 -339 9
-895 8 l-886 -2 -25 25 c-21 21 -24 32 -20 62 4 32 91 298 117 357 13 31 45
129 45 140 0 6 -131 10 -372 10 l-371 1 -231 -616z"/>
<path d="M4309 2276 c-5 -12 -58 -156 -117 -321 l-109 -300 -401 -3 c-221 -1
-402 -4 -402 -7 0 -3 61 -104 135 -226 74 -122 135 -223 135 -225 0 -1 22 -38
49 -81 41 -66 52 -78 77 -80 51 -3 957 -4 958 -1 1 2 11 32 23 68 34 102 332
953 342 975 11 23 71 207 71 216 0 4 -169 6 -376 6 -372 0 -376 0 -385 -21z"/>
<path d="M5705 2149 c-4 -6 -5 -12 -2 -15 2 -3 7 2 10 11 7 17 1 20 -8 4z"/>
</g>
</svg>
